Coordinates
version=1
nRows=19
nColumns=36
inDegrees=yes

Units are S.I. units (second, meters, Newtons, ...)
If the header above contains a line with 'inDegrees', this indicates whether rotational values are in degrees (yes) or radians (no).

endheader
time	pelvis_tilt	pelvis_list	pelvis_rotation	pelvis_tx	pelvis_ty	pelvis_tz	hip_flexion_r	hip_adduction_r	hip_rotation_r	knee_angle_r	knee_angle_r_beta	ankle_angle_r	subtalar_angle_r	mtp_angle_r	hip_flexion_l	hip_adduction_l	hip_rotation_l	knee_angle_l	knee_angle_l_beta	ankle_angle_l	subtalar_angle_l	mtp_angle_l	lumbar_extension	lumbar_bending	lumbar_rotation	arm_flex_r	arm_add_r	arm_rot_r	elbow_flex_r	pro_sup_r	arm_flex_l	arm_add_l	arm_rot_l	elbow_flex_l	pro_sup_l
     13.50000000	    -10.88041048	     -6.36672747	     -7.67425172	     -0.12123325	      0.70352771	     -0.09285794	     76.80551774	     -0.92722853	     -3.58696391	     84.33493286	      1.47192225	     27.15406185	      5.22114140	     -7.49999987	     82.55657340	    -16.16354247	      4.64569468	     91.59710331	      1.59867104	     22.75927715	     10.88727791	     -7.49999987	    -28.10660441	     -6.21260088	     -1.50278277	    -12.13677328	    -10.51413986	      2.04014185	     41.88490499	    108.25035634	     51.65969071	     -6.70751969	     23.48854563	     34.83018579	    102.55721945
     13.51666670	    -10.26495802	     -6.26039677	     -8.20741354	     -0.11048625	      0.70612632	     -0.09810168	     75.72773502	     -0.58376965	     -3.17259845	     83.87188776	      1.46384059	     27.13577389	      4.83616021	     -7.49999987	     81.15409555	    -16.42681473	      4.28817226	     91.42131088	      1.59560288	     23.48764123	     10.76290842	     -7.49999987	    -28.21454051	     -5.44738040	     -2.10141564	    -10.70903072	    -10.62977648	      1.98901708	     41.69121941	    108.72356723	     49.64466343	     -7.59997366	     20.41505573	     36.69694449	    102.53554443
     13.53333330	    -10.63582853	     -6.00564168	     -8.19105953	     -0.13331134	      0.70154866	     -0.09939810	     76.44592702	     -1.00021818	     -3.11944024	     83.90270844	      1.46437851	     26.84553927	      4.76176120	     -7.49999987	     81.82876676	    -16.20084128	      4.08062420	     91.49383626	      1.59686869	     23.57056170	     10.86537104	     -7.49999987	    -28.61167440	     -4.70846326	     -2.03731391	     -9.80476057	    -10.90838558	      1.95543880	     43.63524898	    108.20568440	     49.33808771	     -7.72479441	     20.30157769	     38.17593977	    102.13870481
     13.55000000	    -10.34073174	     -5.63879822	     -8.52267817	     -0.11203992	      0.69922301	     -0.09793093	     76.20369362	     -0.81927026	     -2.51754250	     84.07227873	      1.46733807	     27.27323836	      4.25106217	     -7.49999987	     81.16911198	    -16.13091594	      3.59268197	     91.70098148	      1.60048405	     24.06494770	     10.29267450	     -7.49999987	    -28.35128556	     -4.36375693	     -1.91260514	     -9.27358881	    -10.97803061	      2.00685315	     44.60149512	    107.58782506	     48.23174837	     -7.65892854	     20.32407323	     38.68836167	    101.60400048
     13.56666670	    -10.23570037	     -5.11651724	     -8.45395715	     -0.13513268	      0.69543606	     -0.09930037	     76.79921745	     -1.33991431	     -2.20524644	     84.44911082	      1.47391503	     26.75999152	      4.12075117	     -7.49999987	     81.50728291	    -15.65289231	      3.21281285	     91.94186377	      1.60468824	     23.95537041	     10.04297819	     -7.49999987	    -28.81815244	     -3.70590788	     -3.02836208	     -9.25227278	    -11.54537933	      2.42777290	     49.45348798	    106.48210927	     47.24866113	     -9.01023292	     20.08613358	     42.51019016	    100.34965731
     13.58333330	    -10.51791633	     -4.88991115	     -8.45438925	     -0.13520158	      0.69482249	     -0.09845925	     77.64191867	     -1.58302654	     -2.27208336	     84.72657266	      1.47875766	     26.88610943	      4.06041635	     -7.49999987	     82.27687055	    -15.33827493	      3.14993438	     92.30305614	      1.61099224	     23.98274050	     10.10939209	     -7.49999987	    -29.12730661	     -2.81029249	     -3.75627619	     -8.51579623	    -11.93603837	      2.27200323	     53.48365068	    109.74892918	     45.63442036	    -10.04442956	     18.04949409	     46.79366327	    100.82695546
     13.60000000	    -10.23452947	     -4.63635910	     -8.58128001	     -0.13462789	      0.69439744	     -0.09828995	     77.75269693	     -1.70759366	     -2.15770006	     84.67159613	      1.47779814	     26.59205171	      3.82512275	     -7.49999987	     82.08809286	    -15.09900722	      2.93137170	     92.34357068	      1.61169935	     23.89786802	      9.89016400	     -7.49999987	    -29.35530318	     -2.23163788	     -4.45447788	     -7.56838984	    -12.51536676	      2.24830639	     58.06770760	    109.52986142	     44.37055980	    -11.13730692	     17.46683963	     49.01248337	     99.71792782
     13.61666670	     -9.64638590	     -4.51808505	     -8.53880523	     -0.12646631	      0.69042074	     -0.09152807	     77.50090190	     -1.80568221	     -2.07360819	     85.04570361	      1.48432754	     26.59812833	      3.74012100	     -7.49999987	     81.67807932	    -15.00351310	      2.75640932	     92.72508992	      1.61835812	     24.33027163	     10.10735025	     -7.49999987	    -29.34050624	     -1.42114538	     -5.13595882	     -7.18364220	    -12.80693277	      2.37160011	     61.46621282	    108.63903922	     41.45212750	    -11.83491029	     15.13552521	     50.52817381	     99.35808093
     13.63333330	     -9.08210507	     -4.32156282	     -8.58242425	     -0.12716714	      0.68531658	     -0.09268206	     77.36472168	     -1.89766062	     -1.89515581	     85.67988550	      1.49539610	     26.66087351	      3.67437603	     -7.49999987	     81.38447837	    -15.01190458	      2.49762381	     93.29514406	      1.62830744	     24.76972231	     10.12179060	     -7.49999987	    -29.44485013	     -0.95155584	     -5.46674746	     -7.11441280	    -12.86416487	      1.61450865	     64.47870461	    108.58234163	     39.35722453	    -12.50106388	     13.92417326	     51.67325967	     99.10336353
     13.65000000	     -8.60301707	     -4.16206154	     -8.50713177	     -0.12803919	      0.68518689	     -0.09201796	     77.44997859	     -2.11673694	     -1.77368294	     86.22897333	      1.50497950	     26.71041053	      3.66388841	     -7.49999987	     81.22701961	    -14.91191691	      2.34450047	     93.76179229	      1.63645199	     25.02724244	     10.10346343	     -7.49999987	    -29.44823719	     -0.44952690	     -5.77629306	     -6.91237252	    -13.01484615	      1.13550712	     67.16314612	    107.35648605	     37.21725042	    -12.84843657	     12.43330116	     52.90566688	     97.71047402
     13.66666670	     -7.95965655	     -3.89976718	     -8.36109741	     -0.11874275	      0.68728315	     -0.08475226	     76.67561319	     -2.24746609	     -1.43448533	     86.48938409	      1.50952452	     27.08630716	      3.78526351	     -7.49999987	     80.21420841	    -14.75365462	      1.97062412	     93.79519244	      1.63703493	     25.38867434	     10.13044852	     -7.49999987	    -29.09243233	     -0.10610870	     -6.01045126	     -6.82322189	    -13.03069713	      0.91463859	     68.41145361	    106.71441044	     34.52549921	    -12.99064389	     11.27139518	     53.33653158	     97.01860892
     13.68333330	     -7.80757632	     -3.80141043	     -8.23431704	     -0.11986801	      0.68759065	     -0.08395861	     76.38465813	     -2.35253562	     -1.42436490	     86.69014471	      1.51302845	     27.13673942	      3.79544381	     -7.49999987	     79.90672358	    -14.85863754	      1.82541340	     93.92570188	      1.63931275	     25.92962922	     10.53644491	     -7.49999987	    -28.51655228	      0.39937526	     -6.20470020	     -6.57453479	    -13.16789507	      1.09406308	     69.71099710	    105.15495323	     31.92672061	    -13.45643083	     10.59339402	     54.65927811	     95.41037162
     13.70000000	     -7.35414067	     -3.57496490	     -8.14974218	     -0.12020634	      0.68145210	     -0.08276493	     76.25707652	     -2.46600068	     -1.16990512	     87.28926248	      1.52348503	     27.35166417	      3.76697017	     -7.49999987	     79.60622558	    -14.88689430	      1.55632536	     94.36821532	      1.64703607	     26.13186933	     10.64403151	     -7.49999987	    -27.79224724	      0.63608225	     -5.99886777	     -6.92585925	    -13.35587547	      1.34750738	     70.96496761	    102.80368360	     29.61814242	    -13.64116349	     10.71547115	     56.11518895	     94.01310213
     13.71666670	     -7.34131384	     -3.69816413	     -7.76165353	     -0.13309510	      0.69147342	     -0.07598492	     76.20436094	     -2.74818589	     -1.63361436	     87.24544002	      1.52272019	     27.38051705	      3.75129740	     -7.49999987	     79.85934166	    -14.88967322	      1.81038783	     94.31291017	      1.64607081	     26.39772744	     11.29709965	     -7.49999987	    -27.98887510	      1.33077630	     -5.91451481	     -6.52977582	    -13.35409914	      1.25404486	     72.49574018	    102.23201305	     27.35711842	    -13.96421191	      9.62230601	     58.86562561	     93.05525299
     13.73333330	     -7.24309929	     -3.61187456	     -7.72541956	     -0.12262310	      0.69275572	     -0.06890977	     75.84623854	     -2.64088244	     -1.71260594	     87.14072205	      1.52089251	     27.81869638	      3.82115605	     -7.49999987	     79.54668374	    -15.12523652	      1.70968603	     94.14426825	      1.64312745	     26.54355028	     11.76679911	     -7.49999987	    -27.32362420	      1.40956600	     -5.37121927	     -6.42305594	    -13.16070128	      1.55169943	     72.84765315	    101.43841504	     25.55059580	    -13.86211280	      9.73772293	     59.19586003	     92.36342379
     13.75000000	     -7.01854932	     -3.49404777	     -7.39381874	     -0.13650367	      0.69087523	     -0.06230361	     75.66500341	     -2.79734152	     -1.88290893	     87.16633838	      1.52133960	     27.57748337	      3.61054049	     -7.49999987	     79.50041500	    -15.16297443	      1.67875402	     93.86905344	      1.63832405	     26.21350133	     11.58052307	     -7.49999987	    -27.11826914	      1.39774218	     -4.87799060	     -5.67123071	    -12.70088347	      1.72306322	     73.25933411	    100.76832560	     24.82472596	    -13.64051167	      9.94610420	     59.29787552	     91.83250021
     13.76666670	     -7.34461221	     -3.73503101	     -7.44155953	     -0.13511442	      0.69012263	     -0.06205760	     75.98674703	     -2.47077517	     -2.26016043	     86.99647435	      1.51837491	     27.75729262	      3.38763239	     -7.49999987	     80.17332264	    -15.59532982	      2.10532898	     93.88718436	      1.63864049	     25.91623960	     11.80912262	     -7.49999987	    -26.05623232	      2.14634243	     -4.42438598	     -4.82736342	    -13.07634696	      3.48149576	     73.83129063	    100.00201166	     22.75899607	    -14.10760339	     10.98882820	     59.63264814	     90.03625524
     13.78333330	     -7.32391272	     -3.44785892	     -7.24840646	     -0.13514784	      0.69101226	     -0.06173116	     75.81301935	     -2.54322129	     -2.10078028	     86.75866466	      1.51422435	     27.95904128	      3.24339267	     -7.49999987	     79.90925628	    -15.56584484	      1.79223008	     93.52653191	      1.63234592	     25.90739969	     11.81577509	     -7.49999987	    -26.13323691	      2.16295679	     -3.72624669	     -3.68531676	    -12.91847125	      3.54439907	     74.02006739	     99.59960152	     21.82237361	    -14.00590376	     11.05535718	     59.77670854	     89.24372047
     13.80000000	     -7.44231558	     -3.55476093	     -7.68865983	     -0.12066978	      0.69905275	     -0.06642850	     75.28230498	     -1.93331248	     -2.18998449	     85.99775228	      1.50094393	     27.87327793	      3.11858863	     -7.49999987	     79.36404093	    -16.15281835	      1.77854323	     93.07474380	      1.62446073	     25.85058395	     12.07130960	     -7.49999987	    -25.25460989	      2.56424104	     -2.17056483	     -2.12303833	    -13.99878431	      6.05570954	     72.66270299	     99.56353544	     20.51341704	    -13.75097320	     12.64137553	     57.75799606	     88.31418945
